<?xml version="1.0" standalone="no"?>
<!DOCTYPE svg PUBLIC "-//W3C//DTD SVG 20010904//EN"
 "http://www.w3.org/TR/2001/REC-SVG-20010904/DTD/svg10.dtd">
<svg version="1.0" xmlns="http://www.w3.org/2000/svg" viewBox="0 0 128.000000 128.000000"
 preserveAspectRatio="xMidYMid meet">

<g transform="translate(0.000000,128.000000) scale(0.100000,-0.100000)"
fill="#000000" stroke="none">
<path d="M683 1044 c-3 -8 6 -36 20 -62 39 -73 41 -129 12 -267 -14 -66 -25
-148 -25 -183 0 -54 4 -66 25 -88 48 -48 60 -17 36 95 -12 58 -9 93 20 216 10
44 19 96 19 116 0 53 -27 132 -54 162 -28 31 -44 34 -53 11z"/>
<path d="M582 824 c-58 -41 -84 -157 -58 -266 28 -120 35 -190 25 -238 -22
-108 -22 -109 -4 -116 13 -5 25 1 42 20 19 22 23 38 23 89 0 34 -5 80 -10 102
-45 197 -44 285 7 358 23 33 25 40 12 52 -13 13 -17 13 -37 -1z"/>
</g>
</svg>
