<?xml version="1.0" standalone="no"?>
<!DOCTYPE svg PUBLIC "-//W3C//DTD SVG 20010904//EN" "http://www.w3.org/TR/2001/REC-SVG-20010904/DTD/svg10.dtd">
<svg version="1.0" xmlns="http://www.w3.org/2000/svg" width="256.000000pt" height="256.000000pt"
    viewBox="0 0 256.000000 256.000000" preserveAspectRatio="xMidYMid meet">

    <g transform="translate(0.000000,256.000000) scale(0.100000,-0.100000)" fill="#000000" stroke="none">
        <path d="M1360 2428 c-30 -32 -21 -81 23 -127 64 -68 85 -106 107 -190 19 -75
20 -92 10 -155 -16 -97 -45 -212 -77 -298 -72 -202 -112 -418 -100 -547 14
-158 92 -291 171 -291 91 0 131 89 87 193 -11 25 -29 94 -41 152 -21 98 -21
115 -10 203 15 120 29 176 84 344 64 196 70 224 70 328 0 162 -48 265 -169
362 -69 56 -119 64 -155 26z" />
        <path d="M1071 1754 c-50 -22 -134 -112 -163 -174 -49 -105 -59 -235 -27 -354
6 -22 30 -102 54 -176 90 -278 108 -404 80 -552 -9 -48 -27 -114 -41 -147 -28
-71 -29 -87 -9 -139 16 -40 58 -72 94 -72 32 0 106 74 129 128 36 85 47 187
35 329 -11 128 -19 164 -90 373 -114 338 -107 505 28 670 34 41 37 82 9 110
-23 23 -51 24 -99 4z" />
    </g>
</svg>